# xmcd CD database file
#
# Track frame offsets:
#	150
#	14266
#	25317
#	41867
#	55325
#	70346
#	88262
#	100027
#	114139
#	133295
#	145603
#	159687
#	178756
#	191270
#
# Disc length: 2740 seconds
#
# Revision: 25
# Processed by: cddbd v1.5.1PL0 Copyright (c) Steve Scherf et al.
# Submitted via: CDex 1.50beta9
#
DISCID=c00ab20e
DTITLE=Norah Jones - Come Away With Me
DYEAR=2002
DGENRE=Blues
TTITLE0=Don't Know Why
TTITLE1=Seven Years
TTITLE2=Cold Cold Heart
TTITLE3=Feelin' The Same Way
TTITLE4=Come Away With Me
TTITLE5=Shoot The Moon
TTITLE6=Turn Me On
TTITLE7=Lonestar
TTITLE8=I've Got To See You Again
TTITLE9=Painter Song
TTITLE10=One Flight Down
TTITLE11=Nightingale
TTITLE12=The Long Day Is Over
TTITLE13=The Nearness Of You
EXTD=(c)2002 Capitol Records Inc/Blue Note Records,\nupc 724353208820 \n\nNorah Jones's debut on Blue Note is a mellow, acoustic pop affair with soul and country overtones,\nimmaculately produced by the great Arif Mardin. (It's pretty much an open secret
EXTD=that the 22-year-old\nvocalist and pianist is the daughter of Ravi Shankar.]\nJones is not quite a jazz singer, but she is joined by some highly regarded jazz talent:\nguitarists Adam Levy, Adam Rogers, Tony Scherr, Bill Frisell, and Kevin Breit;\nd
EXTD=rummers Brian Blade, Dan Rieser, and Kenny Wolleson;\n YEAR: 2002
EXTT0=
EXTT1=
EXTT2=
EXTT3=
EXTT4=
EXTT5=
EXTT6=
EXTT7=
EXTT8=
EXTT9=
EXTT10=
EXTT11=
EXTT12=
EXTT13=
PLAYORDER=
